<svg width="339" height="113" viewBox="0 0 339 113" fill="none" xmlns="http://www.w3.org/2000/svg">
<path fill-rule="evenodd" clip-rule="evenodd" d="M11 2C11 8.29066 6.15953 13.4508 0 13.9589V16.1707C1.16519 16.5825 2 17.6938 2 19C2 20.3062 1.16519 21.4175 0 21.8293V23.6707C1.16519 24.0825 2 25.1938 2 26.5C2 27.8062 1.16519 28.9175 0 29.3293V31.1707C1.16519 31.5825 2 32.6938 2 34C2 35.3062 1.16519 36.4175 0 36.8293V38.6707C1.16519 39.0825 2 40.1938 2 41.5C2 42.8062 1.16519 43.9175 0 44.3293V46.1707C1.16519 46.5825 2 47.6938 2 49C2 50.3062 1.16519 51.4175 0 51.8293V53.6707C1.16519 54.0825 2 55.1938 2 56.5C2 57.8062 1.16519 58.9175 0 59.3293V61.1707C1.16519 61.5825 2 62.6938 2 64C2 65.3062 1.16519 66.4175 0 66.8293V68.6707C1.16519 69.0825 2 70.1938 2 71.5C2 72.8062 1.16519 73.9175 0 74.3293V76.1707C1.16519 76.5825 2 77.6938 2 79C2 80.3062 1.16519 81.4175 0 81.8293V83.6707C1.16519 84.0825 2 85.1938 2 86.5C2 87.8062 1.16519 88.9175 0 89.3293V91.1707C1.16519 91.5825 2 92.6938 2 94C2 95.3062 1.16519 96.4175 0 96.8293V99.0411C6.15953 99.5492 11 104.709 11 111C11 111.681 10.9432 112.35 10.8341 113H327.166C327.057 112.35 327 111.681 327 111C327 104.373 332.373 99 339 99V97C337.343 97 336 95.6569 336 94C336 92.3431 337.343 91 339 91V89.5C337.343 89.5 336 88.1569 336 86.5C336 84.8431 337.343 83.5 339 83.5V82C337.343 82 336 80.6569 336 79C336 77.3431 337.343 76 339 76V74.5C337.343 74.5 336 73.1569 336 71.5C336 69.8431 337.343 68.5 339 68.5V67C337.343 67 336 65.6569 336 64C336 62.3431 337.343 61 339 61V59.5C337.343 59.5 336 58.1569 336 56.5C336 54.8431 337.343 53.5 339 53.5V52C337.343 52 336 50.6569 336 49C336 47.3431 337.343 46 339 46V44.5C337.343 44.5 336 43.1569 336 41.5C336 39.8431 337.343 38.5 339 38.5V37C337.343 37 336 35.6569 336 34C336 32.3431 337.343 31 339 31V29.5C337.343 29.5 336 28.1569 336 26.5C336 24.8431 337.343 23.5 339 23.5V22C337.343 22 336 20.6569 336 19C336 17.3431 337.343 16 339 16V14C332.373 14 327 8.62742 327 2C327 1.31858 327.057 0.650417 327.166 0H10.8341C10.9432 0.650417 11 1.31858 11 2Z" fill="#1976D2"/>
<path d="M57.784 50.9647C57.7834 49.3732 58.2383 47.8166 59.092 46.4884C59.9458 45.1602 61.1608 44.1191 62.586 43.4943C64.0112 42.8696 65.5837 42.6888 67.1081 42.9746C68.6324 43.2603 70.0414 43.9998 71.1599 45.1013C72.2784 46.2028 73.0571 47.6176 73.399 49.1699C73.741 50.7222 73.6313 52.3435 73.0835 53.8322C72.5356 55.321 71.5739 56.6115 70.3178 57.5435C69.0616 58.4754 67.5665 59.0076 66.0183 59.0739C65.9348 59.0765 65.8554 59.112 65.7968 59.1732C65.7381 59.2344 65.7047 59.3164 65.7035 59.4023V66.4866C65.7035 66.5326 65.7124 66.578 65.7298 66.6203C65.7472 66.6626 65.7727 66.7009 65.8048 66.7329C65.8369 66.765 65.8749 66.79 65.9165 66.8067C65.9582 66.8233 66.0027 66.8312 66.0474 66.8299C69.0897 66.7195 72.0329 65.6914 74.5099 63.8739C76.987 62.0565 78.8881 59.5301 79.9761 56.61C81.0642 53.6899 81.2909 50.5054 80.6282 47.4538C79.9654 44.4022 78.4424 41.6185 76.2492 39.4502C74.056 37.2819 71.2897 35.825 68.2955 35.2611C65.3012 34.6972 62.2116 35.0513 59.4121 36.2794C56.6126 37.5074 54.2271 39.555 52.5533 42.1665C50.8795 44.7781 49.9915 47.8381 50.0001 50.9647V77.5311C49.9999 77.6058 50.0171 77.6796 50.0504 77.7461C50.0837 77.8126 50.132 77.8699 50.1913 77.9133C50.2506 77.9567 50.3192 77.9848 50.3912 77.9953C50.4633 78.0059 50.5368 77.9985 50.6055 77.9738L63.5626 73.3521C63.6388 73.3244 63.7048 73.2732 63.7516 73.2056C63.7984 73.1379 63.8238 73.057 63.8241 72.974V67.4468C63.8241 67.4117 63.8173 67.3771 63.8041 67.3447C63.7909 67.3124 63.7716 67.2831 63.7472 67.2586C63.7229 67.234 63.694 67.2147 63.6623 67.2017C63.6306 67.1888 63.5967 67.1825 63.5626 67.1831H58.0407C58.007 67.1831 57.9736 67.1763 57.9424 67.1631C57.9113 67.1498 57.883 67.1304 57.8592 67.1059C57.8353 67.0814 57.8164 67.0523 57.8035 67.0204C57.7906 66.9884 57.784 66.9541 57.784 66.9195V50.9647Z" fill="white"/>
<path d="M109.032 45.88H99.336V67H104.84V59.96H109.032C114.152 59.96 117.192 57.4 117.192 52.92C117.192 48.472 114.152 45.88 109.032 45.88ZM108.168 55.832H104.84V50.008H108.168C110.472 50.008 111.656 50.968 111.656 52.92C111.656 54.872 110.472 55.832 108.168 55.832ZM130.183 45.56C123.751 45.56 119.815 49.624 119.815 56.44C119.815 63.256 123.751 67.32 130.183 67.32C136.615 67.32 140.519 63.256 140.519 56.44C140.519 49.624 136.615 45.56 130.183 45.56ZM130.183 49.88C133.223 49.88 134.887 52.12 134.887 56.44C134.887 60.76 133.223 63 130.183 63C127.111 63 125.447 60.76 125.447 56.44C125.447 52.12 127.111 49.88 130.183 49.88ZM163.025 60.952L158.033 59.544C157.521 61.912 156.017 63 153.969 63C150.673 63 149.041 60.728 149.041 56.44C149.041 52.12 150.865 49.88 153.937 49.88C155.985 49.88 157.329 50.712 157.937 53.336L162.769 51.384C161.713 47.384 158.161 45.56 153.745 45.56C147.377 45.56 143.409 49.624 143.409 56.44C143.409 63.256 147.345 67.32 153.777 67.32C158.257 67.32 161.777 65.368 163.025 60.952ZM179.398 67H185.638L178.086 54.456L185.254 45.88H179.142L171.59 55.256V45.88H166.086V67H171.59V61.048L174.15 57.912L179.398 67ZM188.274 67H205.138V62.744H193.778V58.424H202.482V54.424H193.778V50.136H204.722V45.88H188.274V67ZM226.221 45.88H206.925V50.136H213.837V67H219.341V50.136H226.221V45.88ZM238.327 45.88H229.367V67H238.327C244.951 67 248.567 63.192 248.567 56.44C248.567 49.688 244.951 45.88 238.327 45.88ZM237.783 62.84H234.871V50.04H237.783C241.367 50.04 242.935 52.216 242.935 56.44C242.935 60.664 241.367 62.84 237.783 62.84ZM265.091 67H270.755L263.363 45.88H256.771L249.347 67H254.883L256.355 62.232H263.651L265.091 67ZM257.539 58.488L259.107 53.4L259.971 50.104H260.035L260.963 53.432L262.499 58.488H257.539ZM288.267 45.88H282.667L279.691 51.672L278.091 55.192L276.523 51.672L273.547 45.88H267.851L275.307 59.288V67H280.811V59.288L288.267 45.88Z" fill="white"/>
<path opacity="0.4" d="M15.5 23C15.5 18.8579 18.8579 15.5 23 15.5H316C320.142 15.5 323.5 18.8579 323.5 23V90C323.5 94.1421 320.142 97.5 316 97.5H23C18.8579 97.5 15.5 94.1421 15.5 90V23Z" stroke="white"/>
</svg>
